<?xml version="1.0" encoding="UTF-8" standalone="no"?>
<!-- Created with Inkscape (http://www.inkscape.org/) -->

<svg
   xmlns:dc="http://purl.org/dc/elements/1.1/"
   xmlns:cc="http://creativecommons.org/ns#"
   xmlns:rdf="http://www.w3.org/1999/02/22-rdf-syntax-ns#"
   xmlns:svg="http://www.w3.org/2000/svg"
   xmlns="http://www.w3.org/2000/svg"
   xmlns:sodipodi="http://sodipodi.sourceforge.net/DTD/sodipodi-0.dtd"
   xmlns:inkscape="http://www.inkscape.org/namespaces/inkscape"
   width="210mm"
   height="297mm"
   viewBox="0 0 210 297"
   version="1.1"
   id="svg8"
   sodipodi:docname="AACell_EdgeCut.svg"
   inkscape:version="0.92.2 5c3e80d, 2017-08-06">
  <defs
     id="defs2" />
  <sodipodi:namedview
     id="base"
     pagecolor="#ffffff"
     bordercolor="#666666"
     borderopacity="1.0"
     inkscape:pageopacity="1"
     inkscape:pageshadow="2"
     inkscape:zoom="1.8822254"
     inkscape:cx="455.34147"
     inkscape:cy="388.7972"
     inkscape:document-units="mm"
     inkscape:current-layer="layer1"
     showgrid="false"
     inkscape:window-width="1680"
     inkscape:window-height="960"
     inkscape:window-x="0"
     inkscape:window-y="1"
     inkscape:window-maximized="1"
     inkscape:snap-bbox="true"
     inkscape:bbox-nodes="true"
     inkscape:bbox-paths="true"
     inkscape:snap-bbox-edge-midpoints="true"
     showguides="true"
     inkscape:guide-bbox="true">
    <sodipodi:guide
       position="139.54773,156.93314"
       orientation="0,1"
       id="guide838"
       inkscape:locked="false" />
  </sodipodi:namedview>
  <metadata
     id="metadata5">
    <rdf:RDF>
      <cc:Work
         rdf:about="">
        <dc:format>image/svg+xml</dc:format>
        <dc:type
           rdf:resource="http://purl.org/dc/dcmitype/StillImage" />
        <dc:title />
      </cc:Work>
    </rdf:RDF>
  </metadata>
  <g
     inkscape:label="Layer 1"
     inkscape:groupmode="layer"
     id="layer1">
    <rect
       style="fill:#ffffff;stroke:#000000;stroke-width:0.25400001;stroke-miterlimit:4;stroke-dasharray:none;stroke-dashoffset:0"
       id="rect838"
       width="14"
       height="49"
       x="10"
       y="118.05688" />
    <rect
       style="fill:#ffffff;stroke:#000000;stroke-width:0.25400001;stroke-miterlimit:4;stroke-dasharray:none;stroke-dashoffset:0"
       id="rect4539"
       width="5"
       height="1"
       x="14.5"
       y="117.05687" />
    <rect
       style="fill:#ffffff;stroke:#000000;stroke-width:0.25399998;stroke-miterlimit:4;stroke-dasharray:none;stroke-dashoffset:0"
       id="rect4541"
       width="7"
       height="1"
       x="13.5"
       y="166.55688" />
    <path
       style="fill:#ffffff;stroke:#000000;stroke-width:0.25400001;stroke-miterlimit:4;stroke-dasharray:none;stroke-dashoffset:0"
       d="m 64.500081,117.05694 v 0.99994 h -4.499986 v 49.0001 h 3.500046 v 0.49972 h 7.000089 v -0.49972 h 3.499527 v -49.0001 h -4.499983 v -0.99994 z"
       id="rect4543"
       inkscape:connector-curvature="0" />
    <path
       id="path4550"
       d="m 14.499986,46.50024 v 0.99994 H 10 v 49.0001 h 3.500046 V 97 h 7.000089 v -0.49972 h 3.499527 v -49.0001 h -4.499983 v -0.99994 z"
       style="fill:#ffffff;stroke:#000000;stroke-width:0.25400001;stroke-miterlimit:4;stroke-dasharray:none;stroke-dashoffset:0"
       inkscape:connector-curvature="0" />
    <rect
       style="fill:#ffffff;stroke:#000000;stroke-width:0.26150897;stroke-miterlimit:4;stroke-dasharray:none;stroke-dashoffset:0"
       id="rect4554"
       width="1.7"
       height="26.5"
       x="16.149832"
       y="70.5" />
    <path
       inkscape:connector-curvature="0"
       style="fill:#ffffff;stroke:#000000;stroke-width:0.25400001;stroke-miterlimit:4;stroke-dasharray:none;stroke-dashoffset:0"
       d="m 64.49999,45.00024 v 0.99994 H 60 v 49.0001 h 3.50005 V 95.5 h 7.00009 v -0.49972 h 3.49952 v -49.0001 h -4.49998 v -0.99994 z"
       id="path4557" />
    <rect
       y="45.00024"
       x="66.149834"
       height="26.5"
       width="1.7"
       id="rect4559"
       style="fill:#ffffff;stroke:#000000;stroke-width:0.26150897;stroke-miterlimit:4;stroke-dasharray:none;stroke-dashoffset:0" />
    <path
       style="fill:#ffffff;stroke:#000000;stroke-width:0.96000004;stroke-miterlimit:4;stroke-dasharray:none;stroke-dashoffset:0"
       d="M 489.44922 175.74805 L 489.44922 179.52734 L 472.44141 179.52734 L 472.44141 364.72461 L 485.66992 364.72461 L 485.66992 366.61328 L 495.68359 366.61328 L 495.68359 266.45703 L 502.10938 266.45703 L 502.10938 366.61328 L 512.12695 366.61328 L 512.12695 364.72461 L 525.35352 364.72461 L 525.35352 179.52734 L 508.3457 179.52734 L 508.3457 175.74805 L 489.44922 175.74805 z "
       transform="scale(0.26458333)"
       id="path4580"
       inkscape:export-xdpi="999.91003"
       inkscape:export-ydpi="999.91003" />
    <path
       style="fill:#ffffff;stroke:#000000;stroke-width:0.25400001;stroke-miterlimit:4;stroke-dasharray:none;stroke-dashoffset:0"
       d="m 179.50015,46.500004 v 0.99994 h -4.49998 v 49.000108 h 3.50004 v 0.49971 h 7.00009 v -0.49971 h 3.49953 V 47.499944 h -4.49998 v -0.99994 h -1.65003 v 26.499674 h -1.70015 V 46.500004 Z"
       id="path4584"
       inkscape:connector-curvature="0"
       inkscape:export-xdpi="999.91034"
       inkscape:export-ydpi="999.91034" />
    <path
       inkscape:connector-curvature="0"
       style="fill:#ffffff;stroke:#000000;stroke-width:0.25400001;stroke-miterlimit:4;stroke-dasharray:none;stroke-dashoffset:0"
       d="m 130.04805,114.81698 v 0.99994 h -4.49999 l 0,24.24994 c 5.39271,0 9.45601,0.0603 13.99967,0 l 0,-24.24994 h -4.49999 v -0.99994 z"
       id="path830"
       sodipodi:nodetypes="ccccccccc" />
    <rect
       y="127.09366"
       x="131.69789"
       height="13"
       width="1.7"
       id="rect832"
       style="fill:#ffffff;stroke:#000000;stroke-width:0.26150897;stroke-miterlimit:4;stroke-dasharray:none;stroke-dashoffset:0" />
    <path
       id="path834"
       d="m 180.04805,113.31698 v 0.99994 h -4.49999 v 49.0001 h 3.50005 v 0.49972 h 7.00009 v -0.49972 h 3.49952 v -49.0001 h -4.49998 v -0.99994 z"
       style="fill:#ffffff;stroke:#000000;stroke-width:0.25400001;stroke-miterlimit:4;stroke-dasharray:none;stroke-dashoffset:0"
       inkscape:connector-curvature="0" />
    <rect
       style="fill:#ffffff;stroke:#000000;stroke-width:0.26150897;stroke-miterlimit:4;stroke-dasharray:none;stroke-dashoffset:0"
       id="rect836"
       width="1.7"
       height="13"
       x="181.69789"
       y="113.31698" />
    <path
       style="fill:#ffffff;stroke:#000000;stroke-width:0.96000004;stroke-miterlimit:4;stroke-dasharray:none;stroke-dashoffset:0"
       d="M 484.61328 677.2832 L 484.61328 681.0625 L 467.60547 681.0625 L 467.60547 772.71484 C 476.16941 772.71484 483.5524 772.75736 490.84961 772.78711 L 490.84961 723.68359 L 497.27344 723.68359 L 497.27344 772.80273 C 505.07368 772.82428 512.61496 772.81972 520.51758 772.71484 L 520.51758 681.0625 L 503.50977 681.0625 L 503.50977 677.2832 L 484.61328 677.2832 z "
       transform="scale(0.26458333)"
       id="path1419"
       inkscape:export-xdpi="1000"
       inkscape:export-ydpi="1000" />
    <path
       style="fill:#ffffff;stroke:#000000;stroke-width:0.96000004;stroke-miterlimit:4;stroke-dasharray:none;stroke-dashoffset:0"
       d="M 673.58984 671.61328 L 673.58984 675.39258 L 656.58203 675.39258 L 656.58203 860.58984 L 669.81055 860.58984 L 669.81055 862.47852 L 696.26758 862.47852 L 696.26758 860.58984 L 709.49414 860.58984 L 709.49414 675.39258 L 692.48633 675.39258 L 692.48633 671.61328 L 686.25 671.61328 L 686.25 720.74805 L 679.82617 720.74805 L 679.82617 671.61328 L 673.58984 671.61328 z "
       transform="scale(0.26458333)"
       id="path1423"
       inkscape:export-xdpi="1000"
       inkscape:export-ydpi="1000" />
  </g>
</svg>
